# xmcd
#
# Track frame offsets:
#	150
#	31444
#	79255
#	129592
#	184192
#	213566
#	253217
#	286045
#
# Disc length: 4102 seconds
#
# Revision: 0
# Processed by: cddbd v1.5.2PL0 Copyright (c) Steve Scherf et al.
# Submitted via: audiograbber 1.83.01
#
DISCID=74100408
DTITLE=Grateful Dead - 94-03-23 Nassau Veterans Memorial Coliseum, Uniondale NY
DYEAR=1900
DGENRE=
TTITLE0=So Many Roads
TTITLE1=Truckin'
TTITLE2=Drums
TTITLE3=Space
TTITLE4=I Need A Miracle
TTITLE5=Standing On The Moon
TTITLE6=Good Lovin'
TTITLE7=US Blues
EXTD=
EXTT0=
EXTT1=
EXTT2=
EXTT3=
EXTT4=
EXTT5=
EXTT6=
EXTT7=
PLAYORDER=
